<svg xmlns="http://www.w3.org/2000/svg" version="1.1" xmlns:xlink="http://www.w3.org/1999/xlink" width="180" height="180"><svg viewBox="0 0 180 180" xmlns="http://www.w3.org/2000/svg">
  <defs>
    <linearGradient id="SvgjsLinearGradient1009" x1="0%" y1="0%" x2="100%" y2="100%">
      <stop offset="0%" style="stop-color:#2d5016;stop-opacity:1"></stop>
      <stop offset="100%" style="stop-color:#1a3009;stop-opacity:1"></stop>
    </linearGradient>
    <linearGradient id="SvgjsLinearGradient1008" x1="0%" y1="0%" x2="100%" y2="100%">
      <stop offset="0%" style="stop-color:#ffffff;stop-opacity:1"></stop>
      <stop offset="100%" style="stop-color:#f8f9fa;stop-opacity:1"></stop>
    </linearGradient>
    <linearGradient id="SvgjsLinearGradient1007" x1="0%" y1="0%" x2="100%" y2="100%">
      <stop offset="0%" style="stop-color:#4ade80;stop-opacity:1"></stop>
      <stop offset="100%" style="stop-color:#22c55e;stop-opacity:1"></stop>
    </linearGradient>
    <filter id="SvgjsFilter1006" x="-50%" y="-50%" width="200%" height="200%">
      <feDropShadow dx="0" dy="1.5" stdDeviation="3" flood-color="rgba(0,0,0,0.25)"></feDropShadow>
    </filter>
    <filter id="SvgjsFilter1005" x="-50%" y="-50%" width="200%" height="200%">
      <feDropShadow dx="0" dy="0.7" stdDeviation="1.5" flood-color="rgba(0,0,0,0.15)"></feDropShadow>
    </filter>
  </defs>
  
  <rect width="180" height="180" rx="32" ry="32" fill="url(#bgGradient)"></rect>
  
  <g transform="translate(90, 90)" filter="url(#dropShadow)">
    <rect x="-30" y="-42" width="60" height="77" rx="5" ry="5" fill="url(#clipboardGradient)" filter="url(#innerShadow)"></rect>
    <rect x="-12" y="-47" width="24" height="10" rx="5" ry="5" fill="#e5e7eb"></rect>
    <rect x="-10.5" y="-45.5" width="21" height="7" rx="3.5" ry="3.5" fill="#f3f4f6"></rect>
    
    <g fill="#374151">
      <rect x="-23" y="-30" width="4.2" height="4.2" rx="0.7" fill="url(#checkGradient)"></rect>
      <path d="M-21.8,-27.6 L-20.65,-26.6 L-18.9,-28.4" stroke="white" stroke-width="0.9" fill="none" stroke-linecap="round" stroke-linejoin="round"></path>
      <rect x="-16" y="-28.8" width="28" height="1" rx="0.5" fill="#9ca3af"></rect>
      
      <rect x="-23" y="-19" width="4.2" height="4.2" rx="0.7" fill="url(#checkGradient)"></rect>
      <path d="M-21.8,-16.6 L-20.65,-15.6 L-18.9,-17.4" stroke="white" stroke-width="0.9" fill="none" stroke-linecap="round" stroke-linejoin="round"></path>
      <rect x="-16" y="-17.8" width="23" height="1" rx="0.5" fill="#9ca3af"></rect>
      
      <rect x="-23" y="-8" width="4.2" height="4.2" rx="0.7" fill="#fbbf24" opacity="0.8"></rect>
      <rect x="-16" y="-6.8" width="32" height="1" rx="0.5" fill="#374151"></rect>
      
      <rect x="-23" y="3" width="4.2" height="4.2" rx="0.7" fill="#e5e7eb"></rect>
      <rect x="-16" y="4.2" width="26" height="1" rx="0.5" fill="#374151"></rect>
      
      <rect x="-23" y="14" width="4.2" height="4.2" rx="0.7" fill="#e5e7eb"></rect>
      <rect x="-16" y="15.2" width="19" height="1" rx="0.5" fill="#374151"></rect>
    </g>
    
    <rect x="-23" y="25" width="46" height="3" rx="1.5" fill="#e5e7eb"></rect>
    <rect x="-23" y="25" width="18" height="3" rx="1.5" fill="url(#checkGradient)"></rect>
    
    <text x="0" y="33" font-family="system-ui, -apple-system, sans-serif" font-size="5" font-weight="600" fill="#6b7280" text-anchor="middle">2/5</text>
  </g>
  
  <rect width="180" height="1" rx="32" ry="0.5" fill="rgba(255,255,255,0.2)"></rect>
  <circle cx="151" cy="151" r="9" fill="url(#checkGradient)" opacity="0.3"></circle>
</svg><style>@media (prefers-color-scheme: light) { :root { filter: none; } }
@media (prefers-color-scheme: dark) { :root { filter: none; } }
</style></svg>